<svg xmlns="http://www.w3.org/2000/svg" viewBox="0 0 1200 420">
  <defs>
    <linearGradient id="g" x1="0" y1="0" x2="1" y2="0">
      <stop offset="0" stop-color="#e879f9" stop-opacity=".95"/>
      <stop offset=".55" stop-color="#38bdf8" stop-opacity=".95"/>
      <stop offset="1" stop-color="#34d399" stop-opacity=".95"/>
    </linearGradient>
    <radialGradient id="rg1" cx="20%" cy="15%" r="70%">
      <stop offset="0" stop-color="#38bdf8" stop-opacity=".28"/>
      <stop offset="1" stop-color="#000000" stop-opacity="0"/>
    </radialGradient>
    <radialGradient id="rg2" cx="75%" cy="10%" r="70%">
      <stop offset="0" stop-color="#e879f9" stop-opacity=".22"/>
      <stop offset="1" stop-color="#000000" stop-opacity="0"/>
    </radialGradient>
    <radialGradient id="rg3" cx="75%" cy="90%" r="80%">
      <stop offset="0" stop-color="#34d399" stop-opacity=".22"/>
      <stop offset="1" stop-color="#000000" stop-opacity="0"/>
    </radialGradient>
    <filter id="glow" x="-40%" y="-40%" width="180%" height="180%">
      <feGaussianBlur stdDeviation="10" result="b"/>
      <feColorMatrix in="b" type="matrix"
        values="1 0 0 0 0
                0 1 0 0 0
                0 0 1 0 0
                0 0 0 .65 0" result="c"/>
      <feMerge>
        <feMergeNode in="c"/>
        <feMergeNode in="SourceGraphic"/>
      </feMerge>
    </filter>
    <filter id="grain" x="-20%" y="-20%" width="140%" height="140%">
      <feTurbulence type="fractalNoise" baseFrequency=".9" numOctaves="2" stitchTiles="stitch" />
      <feColorMatrix type="matrix"
        values="0 0 0 0 0
                0 0 0 0 0
                0 0 0 0 0
                0 0 0 .12 0"/>
    </filter>
  </defs>

  <rect width="1200" height="420" rx="28" fill="#07070a"/>
  <rect width="1200" height="420" rx="28" fill="url(#rg1)"/>
  <rect width="1200" height="420" rx="28" fill="url(#rg2)"/>
  <rect width="1200" height="420" rx="28" fill="url(#rg3)"/>

  <!-- neon ribbon -->
  <path d="M-40 310 C 200 210, 360 360, 590 270 S 1020 180, 1260 280"
        fill="none" stroke="url(#g)" stroke-width="14" stroke-linecap="round" filter="url(#glow)" opacity=".9"/>
  <path d="M-40 330 C 220 240, 370 390, 600 295 S 1040 210, 1260 305"
        fill="none" stroke="url(#g)" stroke-width="4" stroke-linecap="round" opacity=".55"/>

  <!-- waveform cluster -->
  <g opacity=".85" filter="url(#glow)">
    <path d="M150 210 L150 250" stroke="#38bdf8" stroke-width="6" stroke-linecap="round"/>
    <path d="M180 190 L180 270" stroke="#e879f9" stroke-width="6" stroke-linecap="round"/>
    <path d="M210 170 L210 290" stroke="#34d399" stroke-width="6" stroke-linecap="round"/>
    <path d="M240 190 L240 270" stroke="#38bdf8" stroke-width="6" stroke-linecap="round"/>
    <path d="M270 210 L270 250" stroke="#e879f9" stroke-width="6" stroke-linecap="round"/>
  </g>

  <!-- subtle grain -->
  <rect width="1200" height="420" rx="28" filter="url(#grain)" opacity=".35"/>
</svg>
